<svg width="32" height="32" fill="none" xmlns="http://www.w3.org/2000/svg"><path d="M11.666 9.072c.32-.064.576-.085.768-.064.192 0 .49.075.896.224.213.064.395.139.544.224.15.085.298.192.448.32.15.128.33.31.544.544.533.555.928 1.013 1.184 1.376.213.32.405.49.576.512.192 0 .33-.15.416-.448.213-.597.618-1.184 1.216-1.76.597-.576 1.333-.875 2.208-.896.874-.043 1.45.213 1.728.768.128.256.245.448.352.576.128.192.31.768.544 1.728.064.384.021.8-.128 1.248-.107.341-.288.96-.544 1.856-.555 1.92-1.12 3.221-1.696 3.904a43.77 43.77 0 0 1-.8 1.024c-.235.32-.502.576-.8.768-.363.213-1.046.779-2.048 1.696-.512.448-.982.576-1.408.384-.213-.085-.32-.17-.32-.256 0-.064-.384-.501-1.152-1.312-.768-.81-1.259-1.387-1.472-1.728-.235-.384-.619-.885-1.152-1.504-.256-.32-.459-.565-.608-.736a12.03 12.03 0 0 1-.384-.544 22.148 22.148 0 0 1-.352-.544 32.74 32.74 0 0 1-.352-.736 7.533 7.533 0 0 1-.864-2.752c-.043-.512.053-1.045.288-1.6a4.242 4.242 0 0 1 .992-1.44c.448-.427.907-.704 1.376-.832Z" fill="#51A3EE"/></svg>