<svg width="32" height="32" fill="none" xmlns="http://www.w3.org/2000/svg"><path fill-rule="evenodd" clip-rule="evenodd" d="M12 10a4 4 0 1 1 8 0 4 4 0 0 1-8 0Zm6 0a2 2 0 1 0-4 0 2 2 0 0 0 4 0Zm-.318 16H8v-2h3v-.001h4.802A5.973 5.973 0 0 1 15 21c0-1.526.57-2.92 1.509-3.979a6.032 6.032 0 0 0-.284-.017L16 17a6.002 6.002 0 0 0-5.917 5H8.062a8.001 8.001 0 0 1 10.624-6.538A6 6 0 1 1 17.682 26Zm-.882-5a4.2 4.2 0 1 1 8.4 0 4.2 4.2 0 0 1-8.4 0Zm3.3-3v2.1H18v1.8h2.1V24h1.8v-2.1H24v-1.8h-2.1V18h-1.8Z" fill="#DDE0E4"/></svg>