<svg width="80" height="40" fill="none" xmlns="http://www.w3.org/2000/svg"><path d="M28.972 19.815c1.246-.33 2.41-.289 3.49.123 1.162.33 2.159.865 2.99 1.606a7.566 7.566 0 0 1 2.118 2.719c.582 1.07.872 2.141.872 3.212 0 2.141-.789 4.118-2.367 5.93-1.579 1.73-3.656 2.595-6.23 2.595-3.158 0-5.608-1.112-7.353-3.336C20.831 30.358 20 27.516 20 24.14c0-4.613 1.246-8.731 3.738-12.355C26.23 8.16 29.928 5.565 34.828 4l2.368 3.212c-2.99 1.154-5.358 2.76-7.102 4.819-1.662 1.977-2.493 4.242-2.493 6.795 0 .989.457 1.318 1.371.989Zm21.558 0c1.246-.33 2.45-.289 3.613.123 1.163.33 2.16.865 2.991 1.606a7.566 7.566 0 0 1 2.118 2.719c.499 1.07.748 2.141.748 3.212 0 2.141-.79 4.118-2.368 5.93-1.578 1.73-3.655 2.595-6.23 2.595-3.157 0-5.608-1.112-7.352-3.336-1.662-2.306-2.492-5.148-2.492-8.525 0-4.613 1.246-8.731 3.738-12.355C47.788 8.16 51.485 5.565 56.386 4l2.368 3.212c-2.99 1.154-5.358 2.76-7.103 4.819-1.661 1.977-2.492 4.242-2.492 6.795 0 .989.457 1.318 1.37.989Z" fill="#51A3EE" opacity=".5"/></svg>