<svg width="80" height="40" fill="none" xmlns="http://www.w3.org/2000/svg"><path d="M51.028 20.185c-1.246.33-2.41.289-3.49-.123-1.162-.33-2.159-.865-2.99-1.606a7.566 7.566 0 0 1-2.118-2.719c-.582-1.07-.872-2.141-.872-3.212 0-2.142.789-4.118 2.367-5.93C45.504 4.865 47.581 4 50.155 4c3.158 0 5.608 1.112 7.353 3.336C59.169 9.642 60 12.484 60 15.86c0 4.613-1.246 8.731-3.738 12.355-2.492 3.624-6.19 6.219-11.09 7.784l-2.368-3.212c2.99-1.153 5.358-2.76 7.102-4.819 1.662-1.977 2.493-4.242 2.493-6.795 0-.989-.457-1.318-1.371-.989Zm-21.558 0c-1.246.33-2.45.289-3.613-.123-1.163-.33-2.16-.865-2.991-1.606a7.566 7.566 0 0 1-2.118-2.718c-.499-1.071-.748-2.142-.748-3.213 0-2.142.79-4.118 2.368-5.93C23.946 4.865 26.023 4 28.598 4c3.157 0 5.608 1.112 7.352 3.336 1.662 2.306 2.492 5.148 2.492 8.525 0 4.613-1.246 8.731-3.738 12.355-2.492 3.624-6.189 6.219-11.09 7.784l-2.368-3.212c2.99-1.153 5.358-2.76 7.103-4.819 1.661-1.977 2.492-4.242 2.492-6.795 0-.989-.457-1.318-1.37-.989Z" fill="#51A3EE"/></svg>